# Blender v2.78 (sub 0) OBJ File: 'stump.blend'
# www.blender.org
mtllib stump.mtl
o Cylinder_Cylinder.001
v -0.014400 -0.064761 -1.010976
v 0.734744 -0.082547 -0.759215
v 1.006755 -0.080968 0.388595
v 0.601315 -0.063177 0.886321
v -0.475722 -0.091554 0.903852
v -1.391416 -0.093004 0.125382
v -0.781832 -0.031615 -0.623490
v 0.000000 0.676719 -1.000000
v 0.044258 1.388155 -0.927571
v 0.752654 1.343385 -0.618903
v 0.793133 0.611382 -0.684707
v 0.966267 1.391068 0.290728
v 1.037714 0.694363 0.282526
v 0.391041 1.414694 0.850690
v 0.433884 0.767701 0.900969
v -0.398157 1.343385 0.813108
v -0.433884 0.782315 0.900969
v -0.860550 1.391020 0.195475
v -0.974928 0.580481 0.097135
v -0.709203 1.343385 -0.578491
v -0.781832 0.676719 -0.623490
v 2.580952 -0.022465 -0.811204
v 0.256828 0.235005 1.662833
v 2.615606 -0.023564 -0.566314
v -0.888036 -0.039436 -1.824384
v 1.733318 -0.013209 -0.116760
v 1.733318 0.339428 -0.116760
v 1.612326 -0.013209 -0.646862
v 1.607781 0.325408 -0.653440
v -0.798565 0.341311 -1.174891
v -0.818897 -0.013313 -1.146754
v -0.407256 0.298659 -1.333627
v -0.338210 -0.044284 -1.238747
v -0.073825 -0.042304 2.624583
v 0.125913 -0.069554 2.622698
v -0.227201 0.235005 1.662833
v -0.250537 -0.020957 1.664441
v 0.301491 -0.059720 1.654663
v -0.807185 1.343385 -0.655327
v 0.042864 1.388155 -1.049157
v -0.978846 1.391020 0.222521
v -0.455625 1.343385 0.921403
v 0.433884 1.414694 0.963763
v 1.088577 1.391068 0.326442
v 0.847915 1.343385 -0.698372
v -0.699280 1.240281 -0.576113
v 0.065810 1.275272 -0.968773
v -0.870472 1.270916 0.193097
v -0.393640 1.244740 0.781981
v 0.362930 1.322818 0.820996
v 0.942674 1.277318 0.229907
v 0.731103 1.235926 -0.577701
vt 0.3191 0.4401
vt 0.3258 0.5093
vt 0.3145 0.5052
vt 0.0768 0.2268
vt 0.1583 0.1395
vt 0.1950 0.2851
vt 0.3385 0.6605
vt 0.3542 0.7019
vt 0.2678 0.7071
vt 0.6963 0.6724
vt 0.8247 0.5151
vt 0.8283 0.6638
vt 0.4873 0.4756
vt 0.3899 0.5835
vt 0.3677 0.4971
vt 0.6249 0.5853
vt 0.5110 0.5810
vt 0.3717 0.3187
vt 0.5216 0.3138
vt 0.6249 0.4527
vt 0.1163 0.0962
vt 0.0570 0.0448
vt 0.0704 0.0376
vt 0.7100 0.2109
vt 0.8269 0.2298
vt 0.7746 0.2752
vt 0.6314 0.1426
vt 0.6234 0.2687
vt 0.5697 0.2163
vt 0.6915 0.0811
vt 0.5311 0.1017
vt 0.4998 0.1319
vt 0.4141 0.0451
vt 0.2548 0.8744
vt 0.1137 0.9162
vt 0.1860 0.8157
vt 0.9717 0.3623
vt 0.9717 0.5147
vt 0.6887 0.3455
vt 0.8340 0.3528
vt 0.2248 0.2890
vt 0.2540 0.2658
vt 0.2826 0.3091
vt 0.0726 0.3181
vt 0.0023 0.3481
vt 0.0458 0.2866
vt 0.9539 0.1871
vt 0.8868 0.1897
vt 0.9513 -0.0020
vt 0.1441 0.3915
vt 0.0549 0.4831
vt 0.0381 0.4577
vt 0.2194 0.3210
vt 0.1766 0.4512
vt 0.1357 0.2946
vt 0.0393 0.8904
vt 0.0908 0.9000
vt 0.0483 0.9722
vt 0.3964 0.6703
vt 0.4575 0.6725
vt 0.3962 0.7841
vt 0.1279 0.8487
vt 0.0245 0.8224
vt 0.2330 0.2318
vt 0.9016 0.5994
vt 0.8384 0.8358
vt 0.7882 0.8450
vt 0.8154 0.6814
vt 0.2772 0.7472
vt 0.1613 0.7901
vt 0.1606 0.7653
vt 0.4246 0.1805
vt 0.3806 0.1824
vt 0.3718 0.0168
vt 0.3681 0.7266
vt 0.2798 0.8067
vt 0.8568 0.9517
vt 0.0795 0.1164
vt 0.2586 0.6626
vt 0.2723 0.5547
vt 0.2723 0.6696
vt 0.1829 0.7348
vt 0.1798 0.7201
vt 0.0867 0.6999
vt 0.0776 0.7120
vt 0.0267 0.6155
vt 0.0416 0.6144
vt 0.0744 0.5209
vt 0.0641 0.5090
vt 0.1913 0.4824
vt 0.1873 0.4971
vt 0.2586 0.5608
vt 0.7520 0.8906
vt 0.6479 0.9858
vt 0.4277 0.8253
vt 0.3394 0.8843
vt 0.4252 0.8806
vt 0.3424 0.8988
vt 0.3170 0.3944
vt 0.3312 0.2927
vt 0.3312 0.3988
vt 0.3357 0.9316
vt 0.2354 0.9694
vt 0.2238 0.9581
vt 0.3208 0.6030
vt 0.3330 0.6031
vt 0.2547 0.9103
vt 0.2583 0.9225
vt 0.4056 0.9254
vt 0.3356 0.9457
vt 0.3330 0.4439
vt 0.0865 0.1788
vt 0.2475 0.1597
vt 0.6836 0.5108
vt 0.6171 0.3098
vt 0.7703 0.1584
vt 0.1748 0.9772
vt 0.0133 0.3634
vt 0.2768 0.4300
vt 0.9692 0.5826
vt 0.3728 0.8334
vt 0.7161 0.9805
vt 0.4787 0.6890
vt 0.6357 0.6558
vt 0.7520 0.7478
vt 0.4931 0.9683
vt 0.4258 0.8679
vt 0.3184 0.2924
vt 0.3981 0.9134
vn -0.6286 0.4066 -0.6629
vn 0.0025 -0.9999 -0.0134
vn 0.7282 -0.0426 -0.6840
vn -0.4331 -0.0594 -0.8994
vn -0.7197 0.4220 -0.5513
vn -0.9631 -0.0493 -0.2646
vn -0.5948 0.3971 0.6989
vn -0.8151 -0.0924 0.5719
vn -0.1351 -0.9908 0.0028
vn -0.0006 -0.0364 0.9993
vn 0.7751 0.0552 0.6294
vn 0.7065 -0.0958 0.7012
vn 0.4540 0.0000 0.8910
vn 0.9682 -0.0769 -0.2382
vn 0.3187 0.0078 -0.9478
vn 0.3659 -0.0447 -0.9296
vn -0.0558 -0.9975 0.0441
vn -0.0105 -0.9999 0.0024
vn -0.1674 -0.0214 -0.9857
vn 0.3302 0.9430 -0.0425
vn 0.3330 0.9374 -0.1024
vn 0.1283 -0.0175 -0.9916
vn 0.0806 -0.9966 -0.0177
vn 0.5313 0.0940 0.8420
vn -0.1054 0.8642 -0.4921
vn -0.9930 0.0648 0.0988
vn -0.9954 0.0628 0.0727
vn -0.2404 0.8325 -0.4991
vn -0.0515 -0.9985 -0.0166
vn 0.6342 -0.0009 -0.7732
vn 0.9736 0.1426 0.1780
vn 0.1312 0.9396 0.3160
vn -0.9791 0.0904 0.1822
vn -0.9551 0.0467 0.2926
vn 0.0000 0.8195 0.5730
vn 0.9239 0.1300 0.3599
vn -0.0676 -0.9914 0.1120
vn -0.0331 0.9986 0.0422
vn -0.0147 0.9978 -0.0643
vn 0.0532 0.9982 0.0282
vn -0.0916 0.9952 0.0347
vn 0.0083 0.9996 -0.0285
vn -0.0365 0.9984 -0.0438
vn 0.0634 0.9980 -0.0007
vn -0.0978 0.9914 -0.0873
vn 0.7750 -0.0516 -0.6298
vn 0.4528 -0.2282 0.8619
vn -0.9712 0.0818 0.2238
vn 0.0180 0.3016 -0.9533
vn 0.9722 0.0985 0.2124
vn -0.4475 0.3970 0.8013
vn -0.6128 0.4677 -0.6370
vn -0.0571 -0.9980 -0.0277
vn -0.0263 -0.9996 0.0076
vn 0.0272 -0.9980 0.0579
vn 0.0420 -0.9980 -0.0476
vn -0.4185 -0.0375 -0.9075
vn -0.9659 0.0000 -0.2588
vn -0.9808 0.0251 -0.1932
vn -0.8337 0.0417 0.5507
vn -0.8011 -0.0528 0.5962
vn -0.0704 -0.9973 -0.0229
vn -0.0396 -0.0965 0.9945
vn 0.7170 0.1324 0.6844
vn 0.6946 -0.0695 0.7161
vn 0.9725 -0.0568 -0.2257
vn 0.3734 0.0679 -0.9252
vn 0.3939 -0.0870 -0.9150
vn -0.0101 -0.9999 -0.0031
vn 0.3334 0.9372 -0.1025
vn 0.3679 0.9139 -0.1714
vn 0.0733 0.1004 -0.9922
vn 0.0811 -0.9965 -0.0185
vn 0.5710 0.0000 0.8209
vn -0.9995 0.0000 0.0303
vn -0.1762 0.7512 -0.6362
vn -0.0700 -0.9971 -0.0299
vn 0.5670 -0.1116 -0.8161
vn -0.0000 0.9609 0.2771
vn -0.9573 0.0890 0.2752
vn 0.0137 0.8138 0.5809
vn 0.9229 0.1800 0.3403
vn 0.0266 -0.9995 0.0149
vn -0.0590 0.9983 0.0007
vn 0.0368 0.9982 -0.0470
vn 0.0150 0.9977 0.0657
vn -0.0779 0.9961 -0.0413
vn 0.0300 0.9995 -0.0114
vn 0.0146 0.9986 -0.0499
vn 0.0365 0.9984 0.0437
vn 0.0031 0.9955 0.0948
vn 0.0814 0.9965 -0.0216
vn 0.0207 0.9982 -0.0566
vn 0.0030 1.0000 -0.0040
vn 0.7894 0.2173 -0.5742
vn 0.4166 0.0610 0.9070
vn -0.9333 0.2755 0.2304
vn 0.0181 0.3025 -0.9530
vn 0.9769 -0.0846 0.1962
vn -0.3895 -0.3805 0.8387
usemtl Stump_Material
s 1
f 12/1/1 50/2/1 14/3/1
f 3/4/2 5/5/2 1/6/2
f 32/7/3 33/8/3 25/9/3
f 39/10/4 8/11/4 21/12/4
f 19/13/5 7/14/5 6/15/5
f 19/13/6 39/16/6 21/17/6
f 5/18/7 19/13/7 6/15/7
f 17/19/8 41/20/8 19/13/8
f 37/21/9 35/22/9 34/23/9
f 15/24/10 42/25/10 17/26/10
f 13/27/11 4/28/11 3/29/11
f 44/30/12 15/24/12 13/27/12
f 27/31/13 26/32/13 24/33/13
f 45/34/14 13/35/14 11/36/14
f 8/11/15 2/37/15 1/38/15
f 8/11/16 45/39/16 11/40/16
f 33/41/17 31/42/17 25/43/17
f 28/44/18 24/45/18 26/46/18
f 28/47/19 29/48/19 22/49/19
f 29/50/20 24/51/20 22/52/20
f 11/53/21 27/54/21 29/50/21
f 2/37/22 29/48/22 28/47/22
f 2/55/23 26/46/23 3/4/23
f 3/29/24 27/31/24 13/27/24
f 30/56/25 32/57/25 25/58/25
f 31/59/26 30/60/26 25/61/26
f 7/14/27 30/60/27 31/59/27
f 8/62/28 30/56/28 21/63/28
f 7/64/29 33/41/29 1/6/29
f 1/38/30 32/65/30 8/11/30
f 38/66/31 23/67/31 35/68/31
f 23/69/32 34/70/32 35/71/32
f 36/72/33 37/73/33 34/74/33
f 5/18/34 36/72/34 17/19/34
f 15/75/35 36/76/35 23/69/35
f 4/77/36 23/67/36 38/66/36
f 5/5/37 38/78/37 37/21/37
f 20/79/38 40/80/38 39/81/38
f 20/79/39 41/82/39 18/83/39
f 16/84/40 41/82/40 42/85/40
f 16/84/41 43/86/41 14/87/41
f 12/88/42 43/86/42 44/89/42
f 12/88/43 45/90/43 10/91/43
f 10/91/44 40/80/44 9/92/44
f 49/93/45 50/94/45 52/95/45
f 18/96/46 49/97/46 48/98/46
f 9/99/47 46/100/47 47/101/47
f 10/102/48 51/103/48 12/104/48
f 16/105/49 50/2/49 49/106/49
f 20/107/50 48/98/50 46/108/50
f 10/102/51 47/109/51 52/110/51
f 12/1/52 51/111/52 50/2/52
f 7/64/53 1/6/53 5/5/53
f 2/55/54 3/4/54 1/6/54
f 4/112/55 5/5/55 3/4/55
f 6/113/56 7/64/56 5/5/56
f 39/10/57 40/114/57 8/11/57
f 19/13/58 21/17/58 7/14/58
f 19/13/59 41/20/59 39/16/59
f 5/18/60 17/19/60 19/13/60
f 17/19/61 42/115/61 41/20/61
f 37/21/62 38/78/62 35/22/62
f 15/24/63 43/116/63 42/25/63
f 13/27/64 15/24/64 4/28/64
f 44/30/65 43/116/65 15/24/65
f 45/34/66 44/117/66 13/35/66
f 8/11/67 11/40/67 2/37/67
f 8/11/68 40/114/68 45/39/68
f 28/44/69 22/118/69 24/45/69
f 29/50/70 27/54/70 24/51/70
f 11/53/71 13/119/71 27/54/71
f 2/37/72 11/40/72 29/48/72
f 2/55/73 28/44/73 26/46/73
f 3/29/74 26/32/74 27/31/74
f 7/14/75 21/17/75 30/60/75
f 8/62/76 32/57/76 30/56/76
f 7/64/77 31/42/77 33/41/77
f 1/38/78 33/120/78 32/65/78
f 23/69/79 36/76/79 34/70/79
f 5/18/80 37/73/80 36/72/80
f 15/75/81 17/121/81 36/76/81
f 4/77/82 15/122/82 23/67/82
f 5/5/83 4/112/83 38/78/83
f 20/79/84 9/92/84 40/80/84
f 20/79/85 39/81/85 41/82/85
f 16/84/86 18/83/86 41/82/86
f 16/84/87 42/85/87 43/86/87
f 12/88/88 14/87/88 43/86/88
f 12/88/89 44/89/89 45/90/89
f 10/91/90 45/90/90 40/80/90
f 47/123/91 46/124/91 52/95/91
f 48/125/92 49/93/92 46/124/92
f 50/94/93 51/126/93 52/95/93
f 52/95/94 46/124/94 49/93/94
f 18/96/95 16/127/95 49/97/95
f 9/99/96 20/128/96 46/100/96
f 10/102/97 52/110/97 51/103/97
f 16/105/98 14/3/98 50/2/98
f 20/107/99 18/96/99 48/98/99
f 10/102/100 9/129/100 47/109/100
